<?xml version="1.0" encoding="UTF-8"?>
<svg id="_레이어_1" data-name="레이어_1" xmlns="http://www.w3.org/2000/svg" version="1.1" viewBox="0 0 24 24">
  <!-- Generator: Adobe Illustrator 29.3.0, SVG Export Plug-In . SVG Version: 2.1.0 Build 146)  -->
  <defs>
    <style>
      .st0 {
        fill: #5863ac;
      }
    </style>
  </defs>
  <path class="st0" d="M8.3,21.7c-.5,0-.9-.2-1.2-.5-.3-.3-.5-.8-.5-1.2s.2-.9.5-1.2c.3-.3.8-.5,1.2-.5s.9.2,1.2.5c.3.3.5.8.5,1.2s-.2.9-.5,1.2c-.3.3-.8.5-1.2.5ZM18,21.7c-.5,0-.9-.2-1.2-.5-.3-.3-.5-.8-.5-1.2s.2-.9.5-1.2c.3-.3.8-.5,1.2-.5s.9.2,1.2.5c.3.3.5.8.5,1.2,0,.5-.2.9-.5,1.2-.3.3-.8.5-1.2.5ZM7.1,5.8l2.5,5.3h6.8c0,0,.1,0,.2,0,0,0,0,0,.1-.1l2.7-4.9c0,0,0-.1,0-.2,0,0,0,0-.2,0,0,0-12.2,0-12.1,0ZM6.4,4.3h13.9c.4,0,.7.2.9.5.2.3.2.7,0,1.1l-3.2,5.8c-.2.3-.4.5-.7.7-.3.2-.6.2-.9.2h-7.3l-1.2,2.1c0,0,0,.2,0,.3,0,0,.1.1.2.1h11.4v1.5h-11.4c-.7,0-1.2-.3-1.5-.9-.3-.6-.3-1.1,0-1.7l1.4-2.6-3.6-7.7h-1.9v-1.5h2.8l1,2ZM9.7,11.2h7-7Z"/>
</svg>