<?xml version="1.0" encoding="UTF-8"?>
<svg id="_레이어_1" data-name="레이어_1" xmlns="http://www.w3.org/2000/svg" version="1.1" viewBox="0 0 24 24">
  <!-- Generator: Adobe Illustrator 29.3.0, SVG Export Plug-In . SVG Version: 2.1.0 Build 146)  -->
  <defs>
    <style>
      .st0 {
        fill: #5863ac;
      }
    </style>
  </defs>
  <path class="st0" d="M11.4,20.5v-1.5h7.3c0,0,.2,0,.2,0,0,0,0-.1,0-.2v-7c0-1.9-.7-3.5-2.1-4.8-1.4-1.3-3-2-4.9-2s-3.6.7-4.9,2c-1.4,1.3-2.1,2.9-2.1,4.8v5.9h-.8c-.5,0-.9-.2-1.2-.5-.3-.3-.5-.7-.5-1.2v-1.9c0-.3,0-.6.3-.9.2-.3.4-.5.7-.7v-1.3c.1-1.1.4-2.1.9-3,.5-.9,1.1-1.7,1.9-2.4.8-.7,1.6-1.2,2.6-1.6,1-.4,2-.6,3.1-.6s2.1.2,3.1.6,1.9.9,2.6,1.6c.8.7,1.4,1.5,1.9,2.4.5.9.8,1.9.9,3v1.3c.3.1.6.3.8.6s.3.5.3.9v2.2c0,.3,0,.6-.3.9s-.4.5-.7.6v1.2c0,.5-.2.9-.5,1.3-.4.3-.8.5-1.3.5h-7.3ZM9.2,13.8c-.2,0-.5,0-.6-.2-.2-.2-.3-.4-.3-.6s0-.5.3-.6c.2-.2.4-.3.6-.3s.5,0,.6.3c.2.2.3.4.3.6,0,.2,0,.5-.3.6-.2.2-.4.2-.6.2ZM14.8,13.8c-.2,0-.5,0-.6-.2-.2-.2-.3-.4-.3-.6s0-.5.3-.6c.2-.2.4-.3.6-.3s.5,0,.6.3c.2.2.3.4.3.6s0,.5-.3.6c-.2.2-.4.2-.6.2ZM6.4,12.2c-.1-1.6.4-3,1.5-4.2,1.1-1.2,2.5-1.7,4.2-1.7s2.6.4,3.7,1.3c1.1.9,1.7,2,1.9,3.3-1.4,0-2.7-.4-3.9-1.1-1.2-.7-2.1-1.7-2.8-3-.3,1.2-.8,2.3-1.6,3.3-.8,1-1.8,1.7-3,2.1Z"/>
</svg>