<?xml version="1.0" encoding="UTF-8"?>
<svg id="_레이어_1" data-name="레이어_1" xmlns="http://www.w3.org/2000/svg" version="1.1" viewBox="0 0 24 24">
  <!-- Generator: Adobe Illustrator 29.3.0, SVG Export Plug-In . SVG Version: 2.1.0 Build 146)  -->
  <defs>
    <style>
      .st0 {
        fill: #5863ac;
      }
    </style>
  </defs>
  <path class="st0" d="M12,11.7c-1,0-1.8-.3-2.5-1-.7-.7-1-1.5-1-2.5s.3-1.8,1-2.5c.7-.7,1.5-1,2.5-1s1.8.3,2.5,1c.7.7,1,1.5,1,2.5s-.3,1.8-1,2.5c-.7.7-1.5,1-2.5,1ZM4.5,19.3v-2.2c0-.5.1-.9.4-1.4.3-.4.6-.7,1.1-1,1-.5,2-.8,3-1.1,1-.2,2-.4,3-.4s2,.1,3,.4c1,.2,2,.6,3,1.1.4.2.8.5,1.1,1s.4.9.4,1.4v2.2H4.5ZM6,17.8h12v-.7c0-.2,0-.4-.2-.6-.1-.2-.3-.3-.5-.4-.9-.4-1.7-.7-2.6-1-.9-.2-1.8-.3-2.7-.3-.9,0-1.8.1-2.7.3-.9.2-1.8.5-2.6,1-.2.1-.4.2-.5.4-.1.2-.2.4-.2.6,0,0,0,.7,0,.7ZM12,10.2c.6,0,1-.2,1.4-.6.4-.4.6-.9.6-1.4s-.2-1-.6-1.4c-.4-.4-.9-.6-1.4-.6s-1,.2-1.4.6c-.4.4-.6.9-.6,1.4s.2,1,.6,1.4c.4.4.9.6,1.4.6Z"/>
</svg>